# xmcd
# 
# Track frame offsets:
#     150
#     13897
#     40497
#     61015
# 
# Disc length: 1053
# 
# Revision: 0
# Processed by: cddbd v1.5.2PL0 Copyright (c) Steve Scherf et al.
# Submitted via: fre:ac v1.0.17
# 
DISCID=2d041b04
DTITLE=Snowy White And The White Flames - Little Wing
DYEAR=1997
DGENRE=
TTITLE0=Little Wing (Radio Edit)
TTITLE1=I'll Be Moving On
TTITLE2=The More You Live
TTITLE3=Little Wing
EXTD=
EXTT0=
EXTT1=
EXTT2=
EXTT3=
PLAYORDER=
